<svg width="36" height="36" viewBox="0 0 36 36" fill="none" xmlns="http://www.w3.org/2000/svg">
<path d="M25.1047 17.1047C25.3624 17.1047 25.5727 17.1928 25.7355 17.3692C25.9118 17.532 26 17.7422 26 18C26 18.2578 25.9118 18.4748 25.7355 18.6512C25.5727 18.814 25.3624 18.8953 25.1047 18.8953H18.8953V25.0843C18.8953 25.3421 18.8072 25.5591 18.6308 25.7355C18.468 25.9118 18.2578 26 18 26C17.7422 26 17.5252 25.9118 17.3488 25.7355C17.186 25.5591 17.1047 25.3421 17.1047 25.0843V18.8953H10.8953C10.6376 18.8953 10.4205 18.814 10.2442 18.6512C10.0814 18.4748 10 18.2578 10 18C10 17.7422 10.0814 17.532 10.2442 17.3692C10.4205 17.1928 10.6376 17.1047 10.8953 17.1047H17.1047V10.8953C17.1047 10.6376 17.186 10.4273 17.3488 10.2645C17.5252 10.0882 17.7422 10 18 10C18.2578 10 18.468 10.0882 18.6308 10.2645C18.8072 10.4273 18.8953 10.6376 18.8953 10.8953V17.1047H25.1047Z" fill="url(#paint0_linear)"/>
<defs>
<linearGradient id="paint0_linear" x1="26" y1="26" x2="14.8968" y2="7.12018" gradientUnits="userSpaceOnUse">
<stop stop-color="#15B6D6"/>
<stop offset="1" stop-color="#15D6D6"/>
</linearGradient>
</defs>
</svg>
